<mxfile host="Electron" agent="Mozilla/5.0 (Windows NT 10.0; Win64; x64) AppleWebKit/537.36 (KHTML, like Gecko) draw.io/28.0.4 Chrome/138.0.7204.97 Electron/37.2.1 Safari/537.36" version="28.0.4">
  <diagram name="Page-1" id="7WM767m_bbh0yaHeV_5I">
    <mxGraphModel dx="4506" dy="1869" grid="1" gridSize="10" guides="1" tooltips="1" connect="1" arrows="1" fold="1" page="1" pageScale="1" pageWidth="850" pageHeight="1100" math="0" shadow="0">
      <root>
        <mxCell id="0" />
        <mxCell id="1" parent="0" />
        <mxCell id="1J8hHbY2x0F2kgIr5jKq-30" style="edgeStyle=orthogonalEdgeStyle;rounded=0;orthogonalLoop=1;jettySize=auto;html=1;exitX=0.5;exitY=1;exitDx=0;exitDy=0;fontSize=16;" edge="1" parent="1" source="1J8hHbY2x0F2kgIr5jKq-1" target="1J8hHbY2x0F2kgIr5jKq-2">
          <mxGeometry relative="1" as="geometry" />
        </mxCell>
        <mxCell id="1J8hHbY2x0F2kgIr5jKq-31" style="edgeStyle=orthogonalEdgeStyle;rounded=0;orthogonalLoop=1;jettySize=auto;html=1;exitX=0.5;exitY=1;exitDx=0;exitDy=0;entryX=0.5;entryY=0;entryDx=0;entryDy=0;fontSize=16;" edge="1" parent="1" source="1J8hHbY2x0F2kgIr5jKq-1" target="1J8hHbY2x0F2kgIr5jKq-4">
          <mxGeometry relative="1" as="geometry" />
        </mxCell>
        <mxCell id="1J8hHbY2x0F2kgIr5jKq-1" value="IntrinsicTimescales.jl" style="rounded=1;whiteSpace=wrap;html=1;fillColor=#fff2cc;strokeColor=#d6b656;fontSize=16;" vertex="1" parent="1">
          <mxGeometry x="305" y="10" width="165" height="60" as="geometry" />
        </mxCell>
        <mxCell id="1J8hHbY2x0F2kgIr5jKq-33" style="edgeStyle=orthogonalEdgeStyle;rounded=0;orthogonalLoop=1;jettySize=auto;html=1;exitX=0.5;exitY=1;exitDx=0;exitDy=0;entryX=1;entryY=0.5;entryDx=0;entryDy=0;fontSize=16;" edge="1" parent="1" source="1J8hHbY2x0F2kgIr5jKq-2" target="1J8hHbY2x0F2kgIr5jKq-10">
          <mxGeometry relative="1" as="geometry" />
        </mxCell>
        <mxCell id="1J8hHbY2x0F2kgIr5jKq-34" style="edgeStyle=orthogonalEdgeStyle;rounded=0;orthogonalLoop=1;jettySize=auto;html=1;exitX=0.5;exitY=1;exitDx=0;exitDy=0;entryX=1;entryY=0.5;entryDx=0;entryDy=0;fontSize=16;" edge="1" parent="1" source="1J8hHbY2x0F2kgIr5jKq-2" target="1J8hHbY2x0F2kgIr5jKq-25">
          <mxGeometry relative="1" as="geometry" />
        </mxCell>
        <mxCell id="1J8hHbY2x0F2kgIr5jKq-35" style="edgeStyle=orthogonalEdgeStyle;rounded=0;orthogonalLoop=1;jettySize=auto;html=1;exitX=0.5;exitY=1;exitDx=0;exitDy=0;entryX=1;entryY=0.5;entryDx=0;entryDy=0;fontSize=16;" edge="1" parent="1" source="1J8hHbY2x0F2kgIr5jKq-2" target="1J8hHbY2x0F2kgIr5jKq-32">
          <mxGeometry relative="1" as="geometry" />
        </mxCell>
        <mxCell id="1J8hHbY2x0F2kgIr5jKq-2" value="Model-Free INT Estimation&lt;div&gt;`acw`&lt;/div&gt;" style="rounded=1;whiteSpace=wrap;html=1;fillColor=#fff2cc;strokeColor=#d6b656;fontSize=16;" vertex="1" parent="1">
          <mxGeometry x="170" y="110" width="150" height="60" as="geometry" />
        </mxCell>
        <mxCell id="1J8hHbY2x0F2kgIr5jKq-43" style="edgeStyle=orthogonalEdgeStyle;rounded=0;orthogonalLoop=1;jettySize=auto;html=1;exitX=0.5;exitY=1;exitDx=0;exitDy=0;entryX=0.5;entryY=0;entryDx=0;entryDy=0;fontSize=16;" edge="1" parent="1" source="1J8hHbY2x0F2kgIr5jKq-4" target="1J8hHbY2x0F2kgIr5jKq-5">
          <mxGeometry relative="1" as="geometry" />
        </mxCell>
        <mxCell id="1J8hHbY2x0F2kgIr5jKq-4" value="Model-Free INT Estimation&lt;div&gt;`acw`&lt;/div&gt;" style="rounded=1;whiteSpace=wrap;html=1;fillColor=#fff2cc;strokeColor=#d6b656;fontSize=16;" vertex="1" parent="1">
          <mxGeometry x="565" y="110" width="150" height="60" as="geometry" />
        </mxCell>
        <mxCell id="1J8hHbY2x0F2kgIr5jKq-44" style="edgeStyle=orthogonalEdgeStyle;rounded=0;orthogonalLoop=1;jettySize=auto;html=1;exitX=0.5;exitY=1;exitDx=0;exitDy=0;entryX=0.5;entryY=0;entryDx=0;entryDy=0;fontSize=16;" edge="1" parent="1" source="1J8hHbY2x0F2kgIr5jKq-5" target="1J8hHbY2x0F2kgIr5jKq-6">
          <mxGeometry relative="1" as="geometry" />
        </mxCell>
        <mxCell id="1J8hHbY2x0F2kgIr5jKq-45" style="edgeStyle=orthogonalEdgeStyle;rounded=0;orthogonalLoop=1;jettySize=auto;html=1;exitX=0.5;exitY=1;exitDx=0;exitDy=0;fontSize=16;" edge="1" parent="1" source="1J8hHbY2x0F2kgIr5jKq-5" target="1J8hHbY2x0F2kgIr5jKq-7">
          <mxGeometry relative="1" as="geometry" />
        </mxCell>
        <mxCell id="1J8hHbY2x0F2kgIr5jKq-46" style="edgeStyle=orthogonalEdgeStyle;rounded=0;orthogonalLoop=1;jettySize=auto;html=1;exitX=0.5;exitY=1;exitDx=0;exitDy=0;entryX=0.5;entryY=0;entryDx=0;entryDy=0;fontSize=16;" edge="1" parent="1" source="1J8hHbY2x0F2kgIr5jKq-5" target="1J8hHbY2x0F2kgIr5jKq-8">
          <mxGeometry relative="1" as="geometry" />
        </mxCell>
        <mxCell id="1J8hHbY2x0F2kgIr5jKq-47" style="edgeStyle=orthogonalEdgeStyle;rounded=0;orthogonalLoop=1;jettySize=auto;html=1;exitX=0.5;exitY=1;exitDx=0;exitDy=0;entryX=0.5;entryY=0;entryDx=0;entryDy=0;fontSize=16;" edge="1" parent="1" source="1J8hHbY2x0F2kgIr5jKq-5" target="1J8hHbY2x0F2kgIr5jKq-9">
          <mxGeometry relative="1" as="geometry">
            <Array as="points">
              <mxPoint x="640" y="400" />
            </Array>
          </mxGeometry>
        </mxCell>
        <mxCell id="1J8hHbY2x0F2kgIr5jKq-48" style="edgeStyle=orthogonalEdgeStyle;rounded=0;orthogonalLoop=1;jettySize=auto;html=1;exitX=0.5;exitY=1;exitDx=0;exitDy=0;entryX=0.5;entryY=0;entryDx=0;entryDy=0;fontSize=16;" edge="1" parent="1" source="1J8hHbY2x0F2kgIr5jKq-5" target="1J8hHbY2x0F2kgIr5jKq-11">
          <mxGeometry relative="1" as="geometry" />
        </mxCell>
        <mxCell id="1J8hHbY2x0F2kgIr5jKq-5" value="Generative Models" style="rounded=1;whiteSpace=wrap;html=1;fillColor=#d5e8d4;strokeColor=#82b366;fontSize=16;" vertex="1" parent="1">
          <mxGeometry x="580" y="230" width="120" height="60" as="geometry" />
        </mxCell>
        <mxCell id="1J8hHbY2x0F2kgIr5jKq-6" value="OU Process&lt;div&gt;`one_timescale_model`&lt;/div&gt;" style="rounded=1;whiteSpace=wrap;html=1;fillColor=#d5e8d4;strokeColor=#82b366;fontSize=16;" vertex="1" parent="1">
          <mxGeometry x="300" y="330" width="170" height="60" as="geometry" />
        </mxCell>
        <mxCell id="1J8hHbY2x0F2kgIr5jKq-7" value="OU Process with additive oscillation&lt;div&gt;`one_timescale_and_osc_model`&lt;/div&gt;" style="rounded=1;whiteSpace=wrap;html=1;fillColor=#d5e8d4;strokeColor=#82b366;fontSize=16;" vertex="1" parent="1">
          <mxGeometry x="340" y="410" width="270" height="60" as="geometry" />
        </mxCell>
        <mxCell id="1J8hHbY2x0F2kgIr5jKq-8" value="OU Process with missing data&lt;div&gt;`one_timescale_with_missing_model`&lt;/div&gt;" style="rounded=1;whiteSpace=wrap;html=1;fillColor=#d5e8d4;strokeColor=#82b366;fontSize=16;" vertex="1" parent="1">
          <mxGeometry x="710" y="330" width="300" height="60" as="geometry" />
        </mxCell>
        <mxCell id="1J8hHbY2x0F2kgIr5jKq-9" value="OU Process with missing data and additive oscillation&lt;div&gt;`one_timescale_and_osc_with_missing_model`&lt;/div&gt;" style="rounded=1;whiteSpace=wrap;html=1;fillColor=#d5e8d4;strokeColor=#82b366;fontSize=16;" vertex="1" parent="1">
          <mxGeometry x="650" y="410" width="390" height="60" as="geometry" />
        </mxCell>
        <mxCell id="1J8hHbY2x0F2kgIr5jKq-36" style="edgeStyle=orthogonalEdgeStyle;rounded=0;orthogonalLoop=1;jettySize=auto;html=1;exitX=0.5;exitY=1;exitDx=0;exitDy=0;entryX=1;entryY=0.5;entryDx=0;entryDy=0;fontSize=16;" edge="1" parent="1" source="1J8hHbY2x0F2kgIr5jKq-10" target="1J8hHbY2x0F2kgIr5jKq-19">
          <mxGeometry relative="1" as="geometry" />
        </mxCell>
        <mxCell id="1J8hHbY2x0F2kgIr5jKq-37" style="edgeStyle=orthogonalEdgeStyle;rounded=0;orthogonalLoop=1;jettySize=auto;html=1;exitX=0.5;exitY=1;exitDx=0;exitDy=0;entryX=1;entryY=0.5;entryDx=0;entryDy=0;fontSize=16;" edge="1" parent="1" source="1J8hHbY2x0F2kgIr5jKq-10" target="1J8hHbY2x0F2kgIr5jKq-20">
          <mxGeometry relative="1" as="geometry" />
        </mxCell>
        <mxCell id="1J8hHbY2x0F2kgIr5jKq-38" style="edgeStyle=orthogonalEdgeStyle;rounded=0;orthogonalLoop=1;jettySize=auto;html=1;exitX=0.5;exitY=1;exitDx=0;exitDy=0;entryX=1;entryY=0.5;entryDx=0;entryDy=0;fontSize=16;" edge="1" parent="1" source="1J8hHbY2x0F2kgIr5jKq-10" target="1J8hHbY2x0F2kgIr5jKq-21">
          <mxGeometry relative="1" as="geometry" />
        </mxCell>
        <mxCell id="1J8hHbY2x0F2kgIr5jKq-39" style="edgeStyle=orthogonalEdgeStyle;rounded=0;orthogonalLoop=1;jettySize=auto;html=1;exitX=0.5;exitY=1;exitDx=0;exitDy=0;entryX=1;entryY=0.5;entryDx=0;entryDy=0;fontSize=16;" edge="1" parent="1" source="1J8hHbY2x0F2kgIr5jKq-10" target="1J8hHbY2x0F2kgIr5jKq-22">
          <mxGeometry relative="1" as="geometry" />
        </mxCell>
        <mxCell id="1J8hHbY2x0F2kgIr5jKq-40" style="edgeStyle=orthogonalEdgeStyle;rounded=0;orthogonalLoop=1;jettySize=auto;html=1;exitX=0.5;exitY=1;exitDx=0;exitDy=0;entryX=1;entryY=0.5;entryDx=0;entryDy=0;fontSize=16;" edge="1" parent="1" source="1J8hHbY2x0F2kgIr5jKq-10" target="1J8hHbY2x0F2kgIr5jKq-23">
          <mxGeometry relative="1" as="geometry" />
        </mxCell>
        <mxCell id="1J8hHbY2x0F2kgIr5jKq-10" value="From Autocorrelation Function" style="rounded=1;whiteSpace=wrap;html=1;fillColor=#d5e8d4;strokeColor=#82b366;fontSize=16;" vertex="1" parent="1">
          <mxGeometry x="50" y="200" width="150" height="60" as="geometry" />
        </mxCell>
        <mxCell id="1J8hHbY2x0F2kgIr5jKq-49" style="edgeStyle=orthogonalEdgeStyle;rounded=0;orthogonalLoop=1;jettySize=auto;html=1;exitX=0.5;exitY=1;exitDx=0;exitDy=0;entryX=0.5;entryY=0;entryDx=0;entryDy=0;fontSize=16;" edge="1" parent="1" source="1J8hHbY2x0F2kgIr5jKq-11" target="1J8hHbY2x0F2kgIr5jKq-12">
          <mxGeometry relative="1" as="geometry" />
        </mxCell>
        <mxCell id="1J8hHbY2x0F2kgIr5jKq-50" style="edgeStyle=orthogonalEdgeStyle;rounded=0;orthogonalLoop=1;jettySize=auto;html=1;exitX=0.5;exitY=1;exitDx=0;exitDy=0;fontSize=16;" edge="1" parent="1" source="1J8hHbY2x0F2kgIr5jKq-11" target="1J8hHbY2x0F2kgIr5jKq-13">
          <mxGeometry relative="1" as="geometry" />
        </mxCell>
        <mxCell id="1J8hHbY2x0F2kgIr5jKq-51" style="edgeStyle=orthogonalEdgeStyle;rounded=0;orthogonalLoop=1;jettySize=auto;html=1;exitX=0.5;exitY=1;exitDx=0;exitDy=0;entryX=0.5;entryY=0;entryDx=0;entryDy=0;fontSize=16;" edge="1" parent="1" source="1J8hHbY2x0F2kgIr5jKq-11" target="1J8hHbY2x0F2kgIr5jKq-14">
          <mxGeometry relative="1" as="geometry" />
        </mxCell>
        <mxCell id="1J8hHbY2x0F2kgIr5jKq-11" value="Fitting Methods" style="rounded=1;whiteSpace=wrap;html=1;fillColor=#f8cecc;strokeColor=#b85450;fontSize=16;" vertex="1" parent="1">
          <mxGeometry x="580" y="500" width="120" height="60" as="geometry" />
        </mxCell>
        <mxCell id="1J8hHbY2x0F2kgIr5jKq-12" value="Adaptive Approximate Bayesian Computation&lt;div&gt;`*_model(data, time, :abc)`&lt;/div&gt;" style="rounded=1;whiteSpace=wrap;html=1;fillColor=#f8cecc;strokeColor=#b85450;fontSize=16;" vertex="1" parent="1">
          <mxGeometry x="400" y="600" width="220" height="70" as="geometry" />
        </mxCell>
        <mxCell id="1J8hHbY2x0F2kgIr5jKq-13" value="Automatic Differentiation Variational Inference&lt;div&gt;`*_model(data, time, :advi)`&lt;/div&gt;" style="rounded=1;whiteSpace=wrap;html=1;fillColor=#f8cecc;strokeColor=#b85450;fontSize=16;" vertex="1" parent="1">
          <mxGeometry x="660" y="600" width="220" height="70" as="geometry" />
        </mxCell>
        <mxCell id="1J8hHbY2x0F2kgIr5jKq-52" style="edgeStyle=orthogonalEdgeStyle;rounded=0;orthogonalLoop=1;jettySize=auto;html=1;exitX=0.5;exitY=1;exitDx=0;exitDy=0;entryX=0.5;entryY=0;entryDx=0;entryDy=0;fontSize=16;" edge="1" parent="1" source="1J8hHbY2x0F2kgIr5jKq-14" target="1J8hHbY2x0F2kgIr5jKq-15">
          <mxGeometry relative="1" as="geometry">
            <Array as="points">
              <mxPoint x="640" y="770" />
              <mxPoint x="540" y="770" />
            </Array>
          </mxGeometry>
        </mxCell>
        <mxCell id="1J8hHbY2x0F2kgIr5jKq-53" style="edgeStyle=orthogonalEdgeStyle;rounded=0;orthogonalLoop=1;jettySize=auto;html=1;exitX=0.5;exitY=1;exitDx=0;exitDy=0;fontSize=16;" edge="1" parent="1" source="1J8hHbY2x0F2kgIr5jKq-14" target="1J8hHbY2x0F2kgIr5jKq-16">
          <mxGeometry relative="1" as="geometry" />
        </mxCell>
        <mxCell id="1J8hHbY2x0F2kgIr5jKq-54" style="edgeStyle=orthogonalEdgeStyle;rounded=0;orthogonalLoop=1;jettySize=auto;html=1;exitX=0.5;exitY=1;exitDx=0;exitDy=0;fontSize=16;" edge="1" parent="1" source="1J8hHbY2x0F2kgIr5jKq-14" target="1J8hHbY2x0F2kgIr5jKq-17">
          <mxGeometry relative="1" as="geometry" />
        </mxCell>
        <mxCell id="1J8hHbY2x0F2kgIr5jKq-14" value="Summary Statistics" style="rounded=1;whiteSpace=wrap;html=1;fillColor=#dae8fc;strokeColor=#6c8ebf;fontSize=16;" vertex="1" parent="1">
          <mxGeometry x="580" y="690" width="120" height="60" as="geometry" />
        </mxCell>
        <mxCell id="1J8hHbY2x0F2kgIr5jKq-15" value="Autocorrelation Function&lt;div&gt;`*_model(data, time, summary_method=:acf)`&lt;/div&gt;" style="rounded=1;whiteSpace=wrap;html=1;fillColor=#dae8fc;strokeColor=#6c8ebf;fontSize=16;" vertex="1" parent="1">
          <mxGeometry x="400" y="790" width="220" height="60" as="geometry" />
        </mxCell>
        <mxCell id="1J8hHbY2x0F2kgIr5jKq-16" value="Power Spectrum&lt;div&gt;`*_model(data, time, summary_method=:psd)`&lt;/div&gt;" style="rounded=1;whiteSpace=wrap;html=1;fillColor=#dae8fc;strokeColor=#6c8ebf;fontSize=16;" vertex="1" parent="1">
          <mxGeometry x="660" y="790" width="220" height="60" as="geometry" />
        </mxCell>
        <mxCell id="1J8hHbY2x0F2kgIr5jKq-55" style="edgeStyle=orthogonalEdgeStyle;rounded=0;orthogonalLoop=1;jettySize=auto;html=1;exitX=0.5;exitY=1;exitDx=0;exitDy=0;entryX=0.5;entryY=0;entryDx=0;entryDy=0;fontSize=16;" edge="1" parent="1" source="1J8hHbY2x0F2kgIr5jKq-17" target="1J8hHbY2x0F2kgIr5jKq-18">
          <mxGeometry relative="1" as="geometry" />
        </mxCell>
        <mxCell id="1J8hHbY2x0F2kgIr5jKq-17" value="Visualization" style="rounded=1;whiteSpace=wrap;html=1;fillColor=#ffe6cc;strokeColor=#d79b00;fontSize=16;" vertex="1" parent="1">
          <mxGeometry x="580" y="880" width="120" height="60" as="geometry" />
        </mxCell>
        <mxCell id="1J8hHbY2x0F2kgIr5jKq-18" value="Posterior Predictive Check&lt;div&gt;`posterior_predictive`&lt;/div&gt;" style="rounded=1;whiteSpace=wrap;html=1;fillColor=#ffe6cc;strokeColor=#d79b00;fontSize=16;" vertex="1" parent="1">
          <mxGeometry x="530" y="980" width="220" height="60" as="geometry" />
        </mxCell>
        <mxCell id="1J8hHbY2x0F2kgIr5jKq-19" value="ACW-50: Where ACF crosses 0.5&lt;div&gt;`acw(data, fs; acwtypes=:acw50)`&lt;/div&gt;" style="rounded=1;whiteSpace=wrap;html=1;fillColor=#d5e8d4;strokeColor=#82b366;fontSize=16;" vertex="1" parent="1">
          <mxGeometry x="-210" y="290" width="270" height="60" as="geometry" />
        </mxCell>
        <mxCell id="1J8hHbY2x0F2kgIr5jKq-20" value="ACW-0: Where ACF crosses 0&lt;div&gt;`acw(data, fs; acwtypes=:acw0)`&lt;/div&gt;" style="rounded=1;whiteSpace=wrap;html=1;fillColor=#d5e8d4;strokeColor=#82b366;fontSize=16;" vertex="1" parent="1">
          <mxGeometry x="-210" y="360" width="270" height="60" as="geometry" />
        </mxCell>
        <mxCell id="1J8hHbY2x0F2kgIr5jKq-21" value="ACW-euler: Where ACF crosses 1/e&lt;div&gt;`acw(data, fs; acwtypes=:acweuler)`&lt;/div&gt;" style="rounded=1;whiteSpace=wrap;html=1;fillColor=#d5e8d4;strokeColor=#82b366;fontSize=16;" vertex="1" parent="1">
          <mxGeometry x="-210" y="430" width="270" height="60" as="geometry" />
        </mxCell>
        <mxCell id="1J8hHbY2x0F2kgIr5jKq-22" value="AUC: Area under the curve of ACF before it reaches 0&lt;div&gt;`acw(data, fs; acwtypes=:auc)`&lt;/div&gt;" style="rounded=1;whiteSpace=wrap;html=1;fillColor=#d5e8d4;strokeColor=#82b366;fontSize=16;" vertex="1" parent="1">
          <mxGeometry x="-210" y="500" width="270" height="60" as="geometry" />
        </mxCell>
        <mxCell id="1J8hHbY2x0F2kgIr5jKq-23" value="tau: Inverse decay rate of an exponential decay fitted to ACF&lt;div&gt;`acw(data, fs; acwtypes=:tau)`&lt;/div&gt;" style="rounded=1;whiteSpace=wrap;html=1;fillColor=#d5e8d4;strokeColor=#82b366;fontSize=16;" vertex="1" parent="1">
          <mxGeometry x="-210" y="570" width="270" height="60" as="geometry" />
        </mxCell>
        <mxCell id="1J8hHbY2x0F2kgIr5jKq-41" style="edgeStyle=orthogonalEdgeStyle;rounded=0;orthogonalLoop=1;jettySize=auto;html=1;exitX=0.5;exitY=1;exitDx=0;exitDy=0;entryX=1;entryY=0.5;entryDx=0;entryDy=0;fontSize=16;" edge="1" parent="1" source="1J8hHbY2x0F2kgIr5jKq-25" target="1J8hHbY2x0F2kgIr5jKq-26">
          <mxGeometry relative="1" as="geometry" />
        </mxCell>
        <mxCell id="1J8hHbY2x0F2kgIr5jKq-25" value="From Power Spectrum" style="rounded=1;whiteSpace=wrap;html=1;fillColor=#f8cecc;strokeColor=#b85450;fontSize=16;" vertex="1" parent="1">
          <mxGeometry x="50" y="710" width="150" height="60" as="geometry" />
        </mxCell>
        <mxCell id="1J8hHbY2x0F2kgIr5jKq-26" value="knee: Inverse decay rate estimated from the knee frequency of a Lorentzian fit to PSD&lt;div&gt;acw(data, fs; acwtypes=:knee)`&lt;/div&gt;" style="rounded=1;whiteSpace=wrap;html=1;fillColor=#f8cecc;strokeColor=#b85450;fontSize=16;" vertex="1" parent="1">
          <mxGeometry x="-210" y="770" width="270" height="110" as="geometry" />
        </mxCell>
        <mxCell id="1J8hHbY2x0F2kgIr5jKq-29" value="Plot the autocorrelation function and/or power spectra&lt;div&gt;`acwplot(acwresults)`&lt;/div&gt;" style="rounded=1;whiteSpace=wrap;html=1;fillColor=#dae8fc;strokeColor=#6c8ebf;fontSize=16;" vertex="1" parent="1">
          <mxGeometry x="-210" y="1000" width="270" height="80" as="geometry" />
        </mxCell>
        <mxCell id="1J8hHbY2x0F2kgIr5jKq-42" style="edgeStyle=orthogonalEdgeStyle;rounded=0;orthogonalLoop=1;jettySize=auto;html=1;exitX=0.5;exitY=1;exitDx=0;exitDy=0;entryX=1;entryY=0.5;entryDx=0;entryDy=0;fontSize=16;" edge="1" parent="1" source="1J8hHbY2x0F2kgIr5jKq-32" target="1J8hHbY2x0F2kgIr5jKq-29">
          <mxGeometry relative="1" as="geometry" />
        </mxCell>
        <mxCell id="1J8hHbY2x0F2kgIr5jKq-32" value="Visualization" style="rounded=1;whiteSpace=wrap;html=1;fillColor=#dae8fc;strokeColor=#6c8ebf;fontSize=16;" vertex="1" parent="1">
          <mxGeometry x="50" y="910" width="150" height="60" as="geometry" />
        </mxCell>
      </root>
    </mxGraphModel>
  </diagram>
</mxfile>
